<?xml version="1.0" encoding="UTF-8"?>
<!DOCTYPE svg PUBLIC "-//W3C//DTD SVG 1.1//EN" "http://www.w3.org/Graphics/SVG/1.1/DTD/svg11.dtd">
<!-- Creator: CorelDRAW (Evaluation Version) -->
<svg xmlns="http://www.w3.org/2000/svg" xml:space="preserve" width="8.5in" height="8.5in" version="1.1" style="shape-rendering:geometricPrecision; text-rendering:geometricPrecision; image-rendering:optimizeQuality; fill-rule:evenodd; clip-rule:evenodd"
viewBox="0 0 8500 8500"
 xmlns:xlink="http://www.w3.org/1999/xlink"
 xmlns:xodm="http://www.corel.com/coreldraw/odm/2003">
 <defs>
  <style type="text/css">
   <![CDATA[
    .fil1 {fill:black;fill-rule:nonzero}
    .fil0 {fill:white;fill-rule:nonzero}
   ]]>
  </style>
 </defs>
 <g id="Layer_x0020_1">
  <metadata id="CorelCorpID_0Corel-Layer"/>
  <path class="fil0" d="M7472.15 528.06c-367.3,-94.79 -746.45,11.85 -1018.96,284.36 -154.03,156.41 -229.86,310.43 -284.36,578.2 -23.7,116.11 -52.13,213.27 -61.61,213.27 -11.85,0 -92.42,-40.29 -180.1,-90.05 -556.87,-315.17 -1111.38,-447.87 -1789.11,-424.17 -879.15,30.81 -1599.54,334.13 -2232.24,943.13l-241.7 234.6 -99.53 -92.41c-151.65,-139.81 -322.27,-172.99 -549.76,-106.64 -182.46,54.5 -409.95,289.1 -540.28,559.25 -149.29,310.43 -279.63,862.57 -322.28,1369.68 -16.59,203.79 28.43,566.35 104.26,805.69 97.16,305.69 317.54,507.11 587.68,535.55l146.92 16.59 49.76 168.24c118.48,383.89 374.41,834.13 670.62,1175.37 699.06,800.95 1817.55,1246.45 2860.21,1137.44 251.19,-26.06 760.66,-139.81 848.34,-187.2 26.06,-14.21 75.83,4.74 168.25,68.72 478.68,319.91 1082.94,241.7 1412.33,-184.84 66.35,-87.67 137.44,-149.29 187.2,-165.87 109.01,-40.29 125.59,-66.35 168.25,-260.67 35.54,-177.73 26.06,-246.45 -47.4,-322.28 -40.28,-37.92 -30.8,-87.68 125.59,-886.26 94.8,-464.45 229.87,-1161.14 303.32,-1545.03 92.42,-497.63 142.18,-706.17 168.25,-722.75 123.22,-78.2 149.29,-120.86 172.99,-286.73 28.43,-182.46 11.85,-258.3 -73.46,-343.61 -28.43,-28.44 -66.35,-111.38 -85.31,-184.83 -18.96,-73.46 -56.87,-170.62 -82.94,-215.65l-47.4 -82.94 54.5 -35.55c244.07,-156.4 395.74,-398.11 462.09,-729.86 35.55,-180.1 35.55,-210.9 0,-360.19 -49.77,-220.39 -137.44,-386.26 -291.48,-547.4 -144.55,-151.65 -331.76,-260.66 -542.65,-315.17z"/>
  <path class="fil1" d="M7036.13 712.9c-260.67,54.5 -481.05,232.23 -597.16,481.05 -78.2,165.87 -118.48,438.39 -68.72,466.82 16.59,11.85 26.07,-18.96 26.07,-99.53 0,-376.78 267.78,-710.9 646.92,-803.32 184.83,-45.03 369.67,-23.7 547.4,61.61 137.44,68.72 334.13,272.51 412.32,428.91 54.5,111.38 63.98,158.77 63.98,334.13 -2.37,182.46 -11.85,222.75 -78.2,360.19 -90.05,182.47 -206.17,289.1 -436.02,395.74 -137.44,63.98 -165.88,71.09 -213.27,45.02 -52.13,-28.43 -49.76,-30.8 63.98,-56.87 234.6,-52.13 405.22,-187.2 509.48,-400.47 168.24,-341.24 99.53,-689.57 -182.47,-924.17l-75.83 -63.98 61.61 149.29c144.55,350.71 11.85,635.07 -300.95,635.07 -56.87,0 -210.9,-23.7 -338.86,-49.76 -187.2,-40.28 -258.3,-45.02 -348.34,-28.43 -149.29,30.8 -189.57,7.11 -189.57,-111.38 0,-123.22 92.41,-315.17 142.18,-293.84 222.75,87.68 447.87,-28.43 509.48,-267.78l30.81 -113.74 97.16 7.11c113.74,7.11 130.33,-30.81 23.7,-52.13 -111.38,-21.33 -215.64,-16.58 -293.84,18.96l-71.09 28.43 78.2 28.43c68.72,23.7 75.83,33.18 61.61,92.42 -21.33,101.89 -165.87,220.38 -267.78,220.38 -116.11,0 -154.03,-28.43 -139.81,-104.26 16.59,-85.31 -11.85,-78.2 -97.16,26.07 -94.79,113.74 -144.55,267.78 -144.55,438.39 0,125.59 9.48,151.66 97.16,267.78 87.68,116.11 104.26,127.96 161.14,113.74 225.12,-61.61 445.5,87.68 471.57,315.17 9.48,92.42 21.33,111.38 87.68,137.44 106.64,45.03 241.7,170.62 312.8,291.47 61.61,104.26 137.44,362.56 106.64,362.56 -40.28,-2.37 -71.09,-42.65 -87.68,-118.48 -26.07,-125.59 -97.16,-251.19 -191.94,-336.49 -130.33,-120.86 -172.99,-132.7 -73.46,-23.7 158.77,177.72 94.79,277.26 -142.19,225.12 -99.53,-23.7 -106.63,-21.33 -127.96,35.55 -11.85,30.81 -18.96,61.61 -14.22,66.35 4.74,4.74 101.89,35.55 220.38,68.72 284.36,82.94 582.94,222.75 566.35,267.78 -7.11,16.59 -11.85,47.4 -11.85,63.98 0,23.7 -49.76,9.48 -170.62,-47.4 -196.69,-92.42 -630.33,-215.64 -658.77,-184.84 -11.85,9.48 -35.55,59.24 -56.87,106.64l-35.55 90.05 99.53 0c56.87,0 132.7,21.33 177.72,47.4 78.2,47.4 158.77,187.2 127.96,218.02 -9.48,7.11 -196.69,63.98 -419.43,125.59 -220.38,59.24 -405.22,113.74 -409.96,118.48 -16.58,16.59 -92.41,438.39 -78.2,438.39 9.48,0 168.25,-42.66 357.82,-94.79 189.57,-52.13 367.3,-94.79 395.74,-94.79 61.61,0 63.98,7.11 23.7,201.42l-30.81 139.81 -142.18 28.43c-118.48,26.07 -670.62,191.94 -691.94,210.9 -2.37,2.37 -26.07,109.01 -49.76,234.6 -28.43,154.04 -33.18,227.49 -16.58,227.49 14.22,0 158.77,-42.65 322.28,-94.78 353.08,-113.74 473.94,-137.44 473.94,-94.79 0,16.58 -11.85,97.16 -28.43,180.09l-26.07 149.29 -168.24 40.28c-92.42,21.33 -251.19,66.35 -355.46,97.16l-184.84 59.24 -63.98 -61.61c-78.2,-73.46 -184.84,-116.11 -255.93,-97.16 -87.68,21.33 -63.98,-4.74 47.4,-54.5l104.26 -45.02 37.91 -199.05c59.24,-298.58 61.61,-293.84 -78.2,-222.75 -63.98,33.17 -125.59,59.24 -137.44,59.24 -11.85,0 -9.48,-63.98 2.37,-144.55l23.7 -144.55 158.77 -101.89 158.77 -101.89 42.65 -215.64c23.7,-120.85 35.55,-222.75 28.44,-229.85 -7.11,-7.11 -66.35,16.58 -135.07,49.76 -68.72,33.18 -125.59,59.24 -130.33,54.5 -4.74,-4.74 0,-54.5 11.85,-113.74 11.85,-59.24 14.22,-111.38 9.48,-118.48 -21.33,-18.96 -52.13,52.13 -66.35,151.66 -52.13,334.13 -236.97,1286.74 -253.56,1303.33 -37.91,40.28 -23.7,-54.5 104.26,-739.34 71.09,-379.15 116.11,-665.89 101.89,-661.14 -14.22,4.74 -80.57,296.21 -149.29,646.92 -156.4,798.58 -137.44,732.23 -201.42,732.23 -30.81,2.37 -78.2,9.48 -104.26,18.96 -52.13,18.96 -52.13,16.58 -16.59,-142.19 18.96,-87.68 75.83,-379.15 125.59,-646.92 52.13,-267.78 99.53,-509.48 106.63,-540.29 16.59,-66.35 -37.91,-71.09 -125.59,-7.11 -92.42,63.98 -296.21,104.26 -431.29,87.68 -104.26,-14.22 -127.96,-9.48 -215.64,56.87 -111.38,80.57 -248.82,123.22 -381.52,123.22 -52.13,-2.37 -132.7,21.33 -189.57,54.5 -118.48,63.98 -329.39,111.38 -462.09,104.26 -63.98,-4.74 -113.74,9.48 -163.51,47.4 -92.42,68.72 -293.84,120.85 -466.83,120.85 -109.01,0 -154.03,11.85 -213.27,56.87 -92.41,66.35 -282,116.11 -374.41,97.16 -47.4,-11.85 -85.31,0 -132.7,35.55 -82.94,59.24 -296.21,118.48 -364.93,101.89 -28.43,-7.11 -101.89,14.22 -175.36,52.13 -73.46,35.55 -180.1,68.72 -241.71,71.09 -92.41,7.11 -118.48,18.96 -158.77,75.83 -125.59,182.47 -310.43,331.76 -471.57,386.26 -106.63,33.18 -106.63,37.91 18.96,357.82 177.72,443.13 421.8,805.69 772.52,1146.92 827.02,803.33 1976.31,1104.27 3099.54,815.17 149.29,-37.91 277.25,-73.46 282,-80.56 4.74,-4.74 -18.96,-54.5 -49.76,-111.38 -33.18,-56.87 -75.83,-165.88 -97.16,-241.7 -21.33,-87.68 -61.61,-168.25 -104.27,-213.27 -97.16,-101.89 -106.63,-151.66 -63.98,-343.61 37.91,-165.87 109.01,-263.03 191.94,-263.03 18.96,0 33.18,-9.48 33.18,-18.96 0,-9.48 42.65,-18.96 94.79,-16.59 78.2,0 94.78,7.11 94.78,47.4 0,106.63 -28.43,146.92 -113.74,168.24 -80.57,18.96 -87.68,28.44 -109.01,137.44 -21.33,113.74 -18.96,120.86 52.13,180.1 56.87,45.02 80.56,92.41 97.16,180.09 56.87,286.73 175.36,450.24 424.17,573.46 161.14,78.2 194.31,85.31 381.52,85.31 170.61,2.37 225.12,-9.48 334.13,-59.24 170.62,-78.2 286.73,-182.47 357.82,-315.17 42.65,-82.94 71.09,-109.01 130.33,-120.86 94.78,-16.58 118.48,-45.02 139.81,-168.24 14.22,-90.05 9.48,-104.26 -54.5,-154.03l-71.09 -56.87 116.11 -568.73c66.35,-312.8 203.79,-1011.85 308.06,-1552.14 104.26,-540.28 199.05,-1035.55 213.27,-1099.53 11.85,-63.98 21.33,-118.49 21.33,-123.22 0,-2.37 35.55,-16.59 80.57,-33.18 61.61,-18.96 82.94,-42.65 94.79,-99.53 26.07,-130.33 14.22,-175.36 -56.87,-239.34 -47.4,-42.65 -71.09,-87.68 -71.09,-130.33 0,-118.48 -82.94,-296.21 -194.31,-421.8l-113.74 -120.86 113.74 -42.65c364.93,-137.44 554.51,-414.69 559.25,-817.54 2.37,-170.62 -7.11,-222.75 -61.61,-336.49 -182.46,-391 -611.38,-616.12 -1014.22,-530.81l0.02 -0.03zm369.67 2564c142.18,47.4 175.36,85.31 154.03,170.62 -16.58,63.98 -92.41,92.42 -78.2,30.81 11.85,-56.87 -66.35,-146.92 -168.25,-194.31 -123.22,-54.5 -66.35,-59.24 92.42,-7.11zm236.96 203.79c-21.33,97.16 -196.69,1002.38 -405.22,2080.58 -111.38,580.57 -213.27,1111.38 -227.49,1182.47 -16.59,82.94 -33.18,116.11 -45.03,94.79 -9.48,-18.96 37.91,-315.17 106.64,-661.14 68.72,-345.98 218.01,-1104.27 331.76,-1689.59 113.74,-582.94 215.64,-1059.25 227.49,-1059.25 11.85,0 16.58,23.7 11.85,52.13l0 0zm-215.64 639.81c-18.96,132.7 -47.4,208.53 -80.57,208.53 -9.48,0 2.37,-75.83 28.43,-165.87 28.44,-92.41 54.5,-165.87 59.24,-165.87 4.74,0 2.37,56.87 -7.11,123.22zm-158.78 805.7c-23.7,144.55 -66.35,263.03 -85.31,244.07 -26.07,-23.7 0,-234.6 33.18,-300.95 54.5,-104.27 75.83,-78.2 52.13,56.87zm-2921.81 26.06c127.96,109 52.13,357.82 -92.42,300.95 -40.28,-14.22 -71.09,-7.11 -127.96,40.28 -73.46,56.87 -73.46,59.24 -35.55,111.38l42.65 54.5 63.98 -47.4c82.94,-61.61 260.67,-68.72 317.54,-11.85 35.55,35.55 45.03,35.55 130.33,-9.48 154.03,-80.57 274.88,-21.33 317.54,151.66 9.48,37.91 23.7,66.35 33.18,66.35 7.11,0 45.02,-52.13 80.57,-118.49 75.83,-135.07 149.29,-168.24 241.7,-109 33.18,21.33 59.24,59.24 59.24,85.31 0,26.07 9.48,47.4 21.33,47.4 33.17,0 144.55,-139.81 144.55,-180.09 0,-18.96 26.07,-45.03 59.24,-56.87 71.09,-28.44 206.17,18.95 244.08,82.94 16.58,33.17 30.8,35.55 71.09,14.22 116.11,-61.61 253.56,14.22 279.63,154.03 14.22,75.83 21.33,82.94 73.46,68.72 78.2,-18.96 144.55,4.74 175.36,61.61 18.95,37.91 9.48,71.09 -47.4,172.99 -165.87,286.73 -369.67,440.76 -497.63,372.04 -37.91,-21.33 -73.46,-21.33 -144.55,0 -71.09,21.33 -109.01,21.33 -151.66,2.37 -42.65,-18.96 -78.2,-18.96 -130.33,2.37 -54.5,21.33 -92.42,18.96 -154.03,-2.37 -61.61,-23.7 -97.16,-23.7 -130.33,-7.11 -66.35,37.91 -149.29,30.8 -210.9,-11.85 -49.76,-35.55 -61.61,-33.18 -139.81,2.37 -68.72,33.18 -101.89,35.55 -165.87,16.59 -54.5,-16.59 -104.26,-16.59 -161.14,2.37 -59.24,16.59 -99.53,16.59 -142.18,-2.37 -40.28,-18.96 -78.2,-18.96 -120.85,-4.74 -94.79,37.91 -161.14,28.44 -251.19,-33.17 -82.94,-56.88 -85.31,-56.88 -151.66,-11.85 -111.38,71.09 -255.93,82.94 -350.71,26.07 -68.72,-40.28 -87.68,-42.66 -109.01,-16.59 -40.28,49.76 -161.14,66.35 -239.34,35.55 -37.91,-16.59 -68.72,-37.91 -68.72,-47.4 0,-11.85 -42.65,2.37 -92.41,30.81 -82.94,45.02 -104.27,47.4 -170.62,23.7 -61.61,-23.7 -94.79,-23.7 -156.4,-2.37 -61.61,21.33 -97.16,23.7 -154.03,0 -68.72,-23.7 -85.31,-21.33 -182.47,42.65 -135.07,92.42 -263.03,125.59 -393.37,106.64 -215.64,-33.18 -338.86,-180.1 -312.8,-376.78 9.48,-71.09 37.91,-118.48 113.74,-191.94l101.89 -94.79 -135.07 -11.85c-156.4,-14.22 -203.8,-59.24 -206.17,-196.69 0,-120.85 63.98,-184.83 172.99,-165.87 92.42,14.22 132.7,-4.74 334.13,-151.66 291.48,-215.64 540.29,-293.84 665.89,-210.9 33.18,21.33 59.24,56.87 59.24,80.56 0,21.33 28.43,82.94 59.24,135.07 33.18,52.13 59.24,113.74 59.24,135.07 0,30.8 18.96,42.65 61.61,42.65 80.57,0 199.05,118.48 199.05,199.05 0,90.05 35.55,75.83 106.63,-47.4 33.18,-59.24 85.31,-118.48 116.11,-130.33 63.98,-30.8 180.09,9.48 180.09,61.61 0,56.87 37.91,42.65 68.72,-28.43 42.65,-94.79 253.56,-350.71 327.02,-400.47 191.94,-123.22 341.23,-142.19 445.5,-49.76l0.04 0zm2748.83 883.89c-7.11,54.5 -30.81,118.49 -49.76,142.19 -33.18,40.28 -35.55,33.18 -26.07,-97.16 7.11,-78.2 26.07,-175.36 42.65,-213.27l30.81 -71.09 9.48 68.72c4.74,40.28 2.37,116.11 -7.11,170.62l0 -0.01zm-220.39 18.96l-40.28 187.2 -213.27 52.13c-116.11,28.43 -236.97,59.24 -265.4,68.72 -42.65,14.22 -28.43,-16.59 73.46,-170.62 71.09,-104.26 130.33,-199.05 135.07,-213.27 7.11,-18.95 324.65,-120.85 345.98,-111.38 2.37,0 -14.22,85.31 -35.55,187.2l0 0zm-933.65 485.78c26.07,14.22 26.07,40.28 2.37,135.07 -14.22,63.98 -35.55,125.59 -45.02,137.44 -33.18,35.55 -49.76,-78.2 -26.07,-168.24 14.22,-47.4 18.96,-92.41 11.85,-99.53 -4.74,-7.11 -68.72,16.58 -139.81,52.13l-130.33 63.98 0 -56.88c0,-47.39 14.22,-59.24 78.2,-68.72 139.81,-16.59 218.01,-16.59 248.82,4.74l0 0.01zm1011.85 220.39c-9.48,56.87 -26.07,125.59 -37.91,154.03 -23.7,63.98 -101.89,75.83 -82.94,11.85 7.11,-21.33 23.7,-90.05 40.28,-154.03 16.58,-68.72 40.28,-111.38 61.61,-111.38 28.43,0 30.8,21.33 18.95,99.53zm-220.38 30.8c-4.74,37.91 -18.95,87.68 -30.8,109.01 -28.43,54.5 -191.94,78.2 -421.8,61.61 -191.94,-14.22 -168.25,14.22 35.55,42.65 63.98,9.48 132.7,28.43 151.66,40.28 49.76,28.43 -156.4,2.37 -379.15,-49.76l-177.72 -42.66 355.45 -111.38c196.69,-61.61 367.3,-116.11 379.15,-120.85 61.61,-21.33 94.79,4.74 87.68,71.09l-0.02 0.01zm-964.46 272.51c338.86,104.26 585.31,144.55 973.94,158.77l381.52 14.22 -11.85 54.5c-14.22,78.2 -78.2,90.05 -428.91,73.46 -450.24,-18.96 -921.81,-125.59 -1246.45,-279.62 -123.22,-56.87 -154.04,-82.94 -154.04,-125.59 0,-28.44 7.11,-59.24 14.22,-66.35 7.11,-9.48 78.2,14.22 158.77,52.13 80.57,35.55 222.75,90.05 312.8,118.48zm-248.82 208.54c0,80.57 125.59,293.84 137.44,234.6 14.22,-63.98 120.85,-42.65 180.09,37.91 49.76,66.35 49.76,68.72 4.74,101.89 -42.65,30.81 -35.55,35.55 82.94,92.42 154.04,71.09 357.82,78.2 540.29,18.96 113.74,-35.55 196.69,-101.89 353.08,-282 68.72,-78.2 90.05,-61.61 42.65,33.18 -109,213.27 -454.98,381.52 -715.64,350.71 -395.74,-45.03 -696.69,-322.28 -696.69,-637.44 0,-59.24 4.74,-66.35 35.55,-40.28 18.95,16.59 35.55,56.87 35.55,90.05l0 0.01z"/>
  <path class="fil1" d="M4055.07 5042.31c-154.03,75.83 -324.65,284.36 -457.35,559.24 -104.26,215.65 -199.05,338.87 -260.67,338.87 -42.65,0 -18.96,-80.57 52.13,-194.31 73.46,-113.74 78.2,-184.84 9.48,-184.84 -30.8,0 -33.18,-9.48 -11.85,-47.4 18.95,-35.55 18.95,-47.4 -4.74,-47.4 -16.59,0 -68.72,66.35 -113.74,144.55 -87.68,151.66 -241.7,329.39 -286.73,329.39 -35.55,0 -7.11,-139.81 37.91,-189.57 18.96,-21.33 28.44,-47.4 18.96,-54.5 -37.91,-40.28 -99.53,-7.11 -203.79,113.74 -158.77,182.47 -232.23,177.72 -137.44,-7.11 82.94,-163.51 263.03,-303.32 263.03,-206.17 0,18.96 11.85,35.55 23.7,35.55 28.44,0 28.44,0 -2.37,-92.42 -18.96,-54.5 -40.28,-73.46 -82.94,-73.46 -80.57,0 -246.45,170.62 -327.02,336.49 -125.59,258.3 -33.17,400.47 149.29,222.75l85.31 -82.94 0 75.83c0,63.98 9.48,75.83 59.24,82.94 75.83,9.48 184.84,-94.79 322.28,-310.43 56.87,-87.68 109.01,-158.77 113.74,-158.77 7.11,0 -26.07,71.09 -71.09,158.77 -104.26,196.69 -104.26,298.58 0,310.43 54.5,7.11 85.31,-11.85 165.87,-97.16l97.16 -104.27 2.37 66.35c7.11,196.69 210.9,187.2 438.39,-18.96 94.79,-85.31 94.79,-85.31 80.57,-23.7 -40.28,161.14 130.33,239.34 267.78,123.22l71.09 -59.24 14.22 59.24c21.33,87.68 118.48,78.2 215.64,-18.96l80.57 -80.57 7.11 73.46c16.59,175.36 199.05,63.98 386.26,-234.6 59.24,-97.16 113.74,-177.72 120.86,-177.72 4.74,0 -28.44,71.09 -75.83,158.77 -104.27,196.69 -106.64,322.28 -7.11,334.13 47.4,4.74 82.94,-14.22 142.19,-78.2l80.57 -85.31 11.85 78.2c16.59,106.63 87.68,113.74 196.69,18.96l85.31 -73.46 7.11 66.35c11.85,101.89 94.79,101.89 196.69,0l80.57 -80.57 7.11 73.46c9.48,101.89 94.78,111.38 189.57,21.33 87.68,-80.57 265.41,-338.87 236.97,-338.87 -11.85,0 -45.03,35.55 -75.83,75.83 -123.22,182.47 -253.56,203.8 -165.88,30.81 59.24,-113.74 59.24,-130.33 4.74,-130.33 -23.7,0 -94.79,59.24 -156.4,130.33 -156.4,182.46 -229.85,177.72 -135.07,-9.48 90.05,-172.99 263.04,-308.06 263.04,-203.79 0,18.96 11.85,35.55 26.07,35.55 26.07,0 7.11,-87.68 -30.8,-137.44 -61.61,-73.46 -191.94,9.48 -327.02,208.53 -90.05,130.33 -196.69,236.97 -239.34,236.97 -35.55,0 -23.7,-33.18 61.61,-177.72 92.41,-149.29 92.41,-201.42 4.74,-201.42 -42.65,0 -66.35,23.7 -99.53,92.41 -42.65,94.79 -208.53,286.73 -248.82,286.73 -49.76,0 -40.28,-49.76 37.91,-180.09l82.94 -139.81 -47.4 -37.91c-30.8,-26.07 -45.02,-56.87 -35.55,-78.2 7.11,-21.33 2.37,-37.91 -9.48,-37.91 -14.22,0 -59.24,61.61 -101.89,135.07 -175.36,305.69 -426.54,481.05 -282,196.69 59.24,-116.11 59.24,-118.48 -11.85,-118.48 -33.18,0 -59.24,9.48 -59.24,21.33 0,30.8 -201.42,239.34 -232.22,239.34 -80.57,0 54.5,-267.77 175.36,-345.98 59.24,-40.28 63.98,-40.28 94.79,2.37 30.8,42.65 33.18,42.65 33.18,-14.22 0,-68.72 -40.28,-116.11 -99.53,-116.11 -59.24,0 -199.05,130.33 -270.15,251.18 -33.18,56.87 -92.41,130.33 -132.7,163.51 -73.46,63.98 -180.09,78.2 -196.69,28.43 -16.59,-45.02 21.33,-165.87 61.61,-182.46 16.58,-9.48 71.09,-35.55 118.48,-56.87 97.16,-47.4 151.66,-135.07 109.01,-177.72 -73.46,-73.46 -220.38,2.37 -331.76,168.24 -104.27,151.66 -180.1,248.82 -182.47,229.86 0,-9.48 21.33,-63.98 49.76,-125.59 63.98,-146.92 54.5,-284.36 -21.33,-293.83 -40.28,-7.11 -82.94,18.95 -151.66,92.41l-94.78 99.53 49.76 -97.16c61.61,-118.48 293.84,-374.41 386.26,-421.8 37.91,-18.96 90.05,-28.43 113.74,-21.33 54.5,16.59 66.35,-37.91 18.96,-78.2 -63.98,-49.76 -127.96,-49.76 -227.49,-2.37l0.03 0zm-123.22 542.65c0,78.2 -187.2,355.46 -241.71,355.46 -54.5,0 7.11,-156.4 118.49,-303.32 56.87,-73.46 123.22,-101.89 123.22,-52.13zm450.24 -2.37c0,26.07 -94.79,97.16 -127.96,97.16 -11.85,0 2.37,-26.07 33.18,-59.24 56.87,-61.61 94.79,-75.83 94.79,-37.91l0 -0.01z"/>
  <path class="fil1" d="M2308.62 5099.18c-63.98,33.17 -182.46,106.63 -260.67,165.87 -158.77,118.48 -317.54,189.57 -388.63,170.62 -87.68,-21.33 -87.68,109 -2.37,137.44 71.09,21.33 203.79,-47.4 350.71,-182.47 253.56,-234.6 279.62,-251.18 158.77,-101.89 -106.64,132.7 -272.51,438.39 -272.51,502.37 0,16.59 -11.85,30.81 -23.7,30.81 -14.22,0 -52.13,26.07 -82.94,59.24 -78.2,75.83 -78.2,199.05 -4.74,286.73 80.57,94.79 272.51,106.63 419.44,28.43 206.17,-111.38 315.17,-360.19 218.01,-490.52l-49.76 -66.35 92.41 -28.43c139.81,-40.28 260.67,-165.87 260.67,-267.78 0,-45.02 -11.85,-92.41 -28.43,-109 -49.76,-49.76 -194.31,-33.18 -291.47,30.8 -123.22,85.31 -130.33,59.24 -9.48,-35.55 59.24,-49.76 123.22,-78.2 168.25,-78.2 56.87,0 66.35,-9.48 61.61,-49.76 -11.85,-75.83 -165.87,-75.83 -315.17,-2.37l0 0.02zm296.21 236.96c0,118.48 -194.31,272.51 -343.61,272.51 -75.83,0 -75.83,37.91 0,56.87 142.19,35.55 118.48,229.85 -42.65,338.86 -144.55,99.53 -431.28,94.79 -431.28,-7.11 0,-28.43 18.95,-47.4 54.5,-52.13 28.43,-4.74 52.13,2.37 52.13,16.58 0,40.28 92.42,78.2 132.7,54.5 26.07,-14.22 30.81,-26.07 11.85,-37.91 -49.76,-30.8 -26.07,-66.35 33.18,-56.87 33.17,7.11 66.35,2.37 73.46,-7.11 23.7,-40.28 -16.58,-116.11 -63.98,-116.11 -23.7,0 -45.02,-4.74 -45.02,-9.48 0,-99.53 277.25,-428.91 412.32,-488.15 109.01,-49.76 156.4,-40.28 156.4,35.55l0.01 -0.01z"/>
  <path class="fil1" d="M5628.54 5409.61c-37.91,99.53 21.33,142.18 97.16,68.72 28.43,-28.43 30.8,-45.02 7.11,-71.09 -37.91,-47.4 -85.31,-45.02 -104.27,2.37l0 -0z"/>
  <path class="fil1" d="M3872.61 1215.27c-400.47,59.24 -777.26,177.72 -1125.6,353.08l-177.72 90.05 132.7 28.43c154.03,30.8 274.88,104.26 350.71,215.64 71.09,104.26 127.96,331.76 111.38,440.76 -16.59,101.89 -9.48,106.63 68.72,45.02 73.46,-56.87 315.17,-106.63 450.24,-92.41 75.83,9.48 113.74,2.37 135.07,-21.33 68.72,-82.94 284.36,-156.4 469.2,-158.77 68.72,-2.37 85.31,-11.85 90.05,-56.87 4.74,-30.81 47.4,-94.79 97.16,-144.55 118.48,-118.49 291.48,-158.77 471.57,-111.38 68.72,18.95 139.81,45.02 154.03,56.87 18.96,16.58 73.46,9.48 170.62,-23.7 123.22,-42.65 161.14,-45.02 281.99,-21.33l139.81 23.7 94.78 -80.57c52.13,-45.03 106.64,-82.94 116.11,-82.94 111.38,0 -327.01,-220.38 -632.7,-317.54 -343.61,-109.01 -504.74,-135.07 -924.18,-144.55 -220.38,-4.74 -433.65,-2.37 -473.94,2.37l-0.02 -0.02z"/>
  <path class="fil1" d="M6047.97 1791.1c-90.05,23.7 -194.31,104.26 -267.78,208.53l-52.13 78.2 -68.72 -49.76c-37.91,-26.07 -104.26,-54.5 -146.92,-61.61 -101.89,-16.58 -258.3,28.44 -312.8,87.68 -40.28,45.03 -42.65,45.03 -116.11,-9.48 -106.63,-82.94 -253.55,-116.11 -364.93,-85.31 -120.86,30.81 -170.62,92.42 -196.69,227.49 -11.85,61.61 -26.07,116.11 -30.8,120.86 -2.37,4.74 -61.61,-4.74 -127.96,-18.96 -151.66,-30.81 -341.23,16.58 -445.5,113.74 -63.98,61.61 -82.94,66.35 -282,66.35 -170.62,0 -229.86,9.48 -293.84,47.4 -127.96,75.83 -218.01,206.16 -274.88,405.21l-52.13 182.47 -28.44 -82.94c-14.22,-45.03 -63.98,-125.59 -106.63,-175.36 -73.46,-87.68 -78.2,-99.53 -47.4,-151.66 16.59,-33.18 30.81,-80.57 33.18,-104.27 0,-26.07 28.43,-75.83 61.61,-111.38 177.72,-184.83 33.18,-575.83 -232.23,-632.7 -225.12,-45.03 -464.45,66.35 -651.66,303.32 -106.64,135.07 -270.15,431.28 -324.65,587.68l-30.81 87.68 -28.43 -106.63c-104.26,-398.11 -253.56,-547.4 -516.59,-511.85 -296.21,40.28 -549.76,409.96 -701.42,1021.33 -87.68,345.98 -111.38,540.28 -111.38,888.63 0,488.15 85.31,777.25 279.62,952.61 154.03,139.81 428.91,151.66 635.07,30.8 106.64,-63.98 300.95,-265.4 355.46,-374.41 33.17,-61.61 45.02,-66.35 127.96,-52.13 116.11,18.96 251.19,-18.96 329.39,-94.79 56.87,-52.13 73.46,-56.87 142.19,-35.55 109,30.81 248.81,-4.74 355.45,-87.68 73.46,-59.24 94.79,-66.35 168.24,-47.4 111.38,28.43 260.67,-14.22 353.09,-99.53 68.72,-63.98 82.94,-68.72 213.27,-56.87 177.72,16.58 341.24,-23.7 459.72,-111.38 80.57,-59.24 106.64,-66.35 215.64,-54.5 149.29,16.58 350.71,-37.91 450.24,-118.48 59.24,-49.76 82.94,-54.5 149.29,-35.55 123.22,33.18 263.03,-16.58 374.41,-132.7 92.42,-94.78 99.53,-99.53 165.88,-71.09 146.92,63.98 383.89,28.43 504.74,-73.46 59.24,-49.76 80.56,-54.5 144.55,-35.55 97.16,26.07 281.99,-26.07 355.45,-104.26 47.4,-49.76 61.61,-54.5 142.19,-33.18 118.48,30.81 263.03,-9.48 369.67,-104.26 113.74,-99.53 255.93,-400.47 345.98,-729.87 90.05,-341.23 92.42,-412.32 11.85,-495.26 -78.2,-78.2 -241.7,-82.94 -341.23,-9.48l-66.35 47.4 -63.98 -137.44c-97.16,-206.17 -272.51,-305.69 -459.72,-260.67l0 0.01zm201.42 267.78c54.5,59.24 99.53,165.87 99.53,227.49 -2.37,30.8 -14.22,23.7 -49.76,-26.07 -26.07,-35.55 -68.72,-63.98 -94.78,-63.98 -97.16,0 -265.41,367.3 -296.21,649.29 -30.81,303.32 135.07,201.42 272.51,-163.51 92.42,-251.18 127.96,-308.06 191.94,-315.16 104.26,-9.48 120.86,18.95 82.94,146.92 -18.96,63.98 -35.55,172.99 -35.55,244.07 0,109.01 7.11,125.59 47.4,125.59 61.61,0 154.03,-146.92 236.97,-376.78 35.55,-97.16 78.2,-182.46 92.42,-187.2 33.17,-11.85 37.91,-28.43 -45.03,265.4 -127.96,452.61 -260.67,677.73 -398.11,677.73 -92.42,0 -146.92,-66.35 -170.62,-206.17 -9.48,-61.61 -18.96,-99.53 -21.33,-82.94 -4.74,66.35 -158.77,343.61 -210.9,386.26 -113.74,90.05 -229.85,33.18 -263.03,-125.59l-18.96 -78.2 -54.5 113.74c-180.09,376.78 -497.63,360.19 -580.57,-30.81l-18.96 -82.94 -40.28 118.48c-56.87,163.51 -125.59,296.21 -196.69,372.04 -101.89,111.38 -234.6,73.46 -267.78,-71.09 -7.11,-35.55 -16.58,-75.83 -18.96,-87.68 -4.74,-14.22 -28.43,23.7 -54.5,82.94 -68.72,154.04 -172.99,251.19 -312.8,284.36 -127.96,30.8 -191.94,18.96 -289.1,-49.76l-61.61 -42.65 -56.87 87.68c-66.35,101.89 -232.22,194.31 -348.34,194.31 -97.16,0 -208.53,-54.5 -244.08,-120.85 -23.7,-47.4 -28.43,-45.03 -85.31,52.13 -90.05,158.77 -146.92,210.9 -236.97,210.9 -90.05,0 -135.07,-56.87 -161.14,-199.05l-14.22 -90.05 -71.09 149.29c-90.05,189.57 -175.36,281.99 -260.67,281.99 -78.2,0 -135.07,-71.09 -154.03,-194.31l-14.22 -85.31 -80.57 158.77c-92.41,184.84 -149.29,244.07 -234.6,244.07 -90.05,0 -127.96,-45.02 -158.77,-196.69l-28.43 -139.81 -73.46 184.83c-135.07,343.61 -274.88,535.55 -447.87,618.49 -199.05,97.16 -348.34,42.65 -447.87,-168.24 -241.7,-500 -49.76,-1777.26 327.02,-2196.7 289.1,-317.54 485.78,-63.98 485.78,623.23 0,293.84 -16.59,336.49 -130.33,357.82 -125.59,23.7 -132.7,-2.37 -68.72,-244.07 63.98,-253.56 80.57,-464.45 37.91,-507.11 -54.5,-54.5 -154.04,9.48 -236.97,146.92 -156.4,265.4 -270.15,746.45 -270.15,1170.62 0,400.48 68.72,535.55 248.82,485.78 258.3,-71.09 526.07,-492.89 656.4,-1040.29 101.89,-414.69 177.72,-639.81 310.43,-912.32 172.99,-360.19 391,-580.57 573.46,-580.57 85.31,0 182.46,85.31 182.46,161.14 0,61.61 -4.74,63.98 -97.16,56.87 -90.05,-9.48 -104.26,-2.37 -220.38,116.11 -215.64,225.12 -426.54,718.02 -535.55,1248.82 -59.24,293.84 -61.61,402.84 -7.11,424.17 80.57,30.8 189.57,-170.62 329.39,-618.49 139.81,-450.24 381.52,-642.19 504.74,-398.11 59.24,118.48 80.57,194.31 54.5,194.31 -11.85,0 -33.18,-26.07 -47.4,-59.24 -101.89,-225.12 -383.89,248.82 -383.89,644.56 0,92.41 9.48,125.59 33.17,125.59 73.46,0 158.77,-137.44 267.78,-424.17 82.94,-220.38 146.92,-277.25 239.34,-220.38 23.7,16.58 23.7,47.39 -7.11,158.77 -47.4,187.2 -47.4,317.54 4.74,336.49 54.5,21.33 149.29,-94.79 149.29,-184.84 0,-85.31 59.24,-236.97 109.01,-272.51 18.95,-16.58 56.87,-113.74 80.56,-220.38 87.68,-367.3 191.94,-476.3 419.44,-440.76 111.38,16.59 125.59,49.76 73.46,165.88 -33.18,71.09 -66.35,78.2 -66.35,9.48 0,-35.55 -11.85,-47.4 -52.13,-40.28 -80.57,11.85 -82.94,172.99 -9.48,459.72 35.55,127.96 61.61,258.3 61.61,289.1 0,30.8 9.48,47.39 23.7,40.28 14.22,-7.11 23.7,-59.24 23.7,-113.74 0,-142.19 40.28,-270.15 97.16,-310.43 35.55,-23.7 61.61,-85.31 82.94,-196.69 75.83,-360.19 149.29,-459.72 345.98,-473.94 172.99,-11.85 201.42,9.48 163.51,132.7 -28.44,101.89 -73.46,130.33 -73.46,52.13 0,-61.61 -40.28,-85.31 -82.94,-49.76 -52.13,42.66 -42.65,215.65 23.7,471.57 33.18,123.22 59.24,246.44 59.24,270.15 0,37.91 7.11,40.28 35.55,16.58 52.13,-42.65 123.22,-258.3 180.09,-537.92 49.76,-255.93 80.57,-315.16 165.87,-315.16 21.33,0 63.98,18.95 92.42,42.65l52.13 42.65 -61.61 244.07c-63.98,253.56 -80.56,452.61 -37.91,452.61 78.2,0 234.6,-293.84 293.84,-554.51 68.72,-293.83 187.2,-500 324.65,-573.46 66.35,-33.17 78.2,-33.17 130.33,0 75.83,52.13 123.22,130.33 142.19,229.86 11.85,75.83 11.85,78.2 -23.7,33.18 -101.89,-132.71 -111.38,-132.71 -203.79,-35.55 -123.22,130.33 -213.27,447.87 -180.09,625.59 21.33,111.38 82.94,144.55 184.84,101.89 139.81,-59.24 225.12,-201.42 312.8,-516.59 68.72,-251.18 161.14,-450.24 260.67,-554.5 92.42,-97.16 172.99,-106.63 246.45,-30.8l-0.01 0.01zm-1312.8 163.5l61.61 47.4 -75.83 94.78c-40.28,49.76 -87.68,92.42 -104.26,92.42 -63.98,0 -92.42,-63.98 -85.31,-172.99 9.48,-104.26 14.22,-111.38 75.83,-111.38 35.55,0 92.41,21.33 127.96,49.76l0 0.01zm-2296.22 284.37c16.59,49.76 -61.61,187.2 -156.39,272.51 -40.28,35.55 -49.76,37.91 -80.57,7.11 -26.07,-28.44 -23.7,-59.24 26.07,-218.02l59.24 -182.46 68.72 35.55c37.91,18.96 75.83,56.87 82.94,85.31l-0.01 0.01zm-1345.97 1241.71c146.92,0 146.92,-2.37 2.37,272.51 -97.16,182.46 -225.12,338.86 -260.67,317.54 -21.33,-14.22 -26.07,-322.28 -4.74,-500 16.59,-120.85 18.96,-123.22 78.2,-106.63 33.18,9.48 118.48,16.58 184.84,16.58l0 0.01z"/>
  <path class="fil1" d="M3931.85 3253.2c-54.5,184.84 -49.76,293.84 14.22,293.84 63.98,0 123.22,-45.03 137.44,-106.64 16.59,-61.61 -47.39,-334.13 -80.56,-355.45 -9.48,-4.74 -40.28,68.72 -71.09,168.24l-0 0.01z"/>
  <path class="fil1" d="M3268.34 3426.19c-66.35,210.9 -59.24,274.88 35.55,274.88 49.76,0 78.2,-16.59 104.26,-61.61 30.81,-56.87 30.81,-80.57 -7.11,-220.38 -23.7,-85.31 -52.13,-156.4 -61.61,-156.4 -9.48,0 -40.28,73.46 -71.09,163.51l-0.01 -0.01z"/>
 </g>
</svg>
